<svg width="13" height="13" viewBox="0 0 13 13" fill="none" xmlns="http://www.w3.org/2000/svg">
<path d="M6.5 0C5.21442 0 3.95772 0.381218 2.8888 1.09545C1.81988 1.80968 0.986755 2.82484 0.494786 4.01256C0.00281635 5.20028 -0.125905 6.50721 0.124899 7.76808C0.375702 9.02896 0.994767 10.1872 1.90381 11.0962C2.81285 12.0052 3.97104 12.6243 5.23191 12.8751C6.49279 13.1259 7.79972 12.9972 8.98744 12.5052C10.1752 12.0132 11.1903 11.1801 11.9046 10.1112C12.6188 9.04228 13 7.78558 13 6.5C13 5.64641 12.8319 4.80117 12.5052 4.01256C12.1786 3.22394 11.6998 2.50739 11.0962 1.90381C10.4926 1.30022 9.77606 0.821438 8.98744 0.494783C8.19883 0.168127 7.35359 0 6.5 0ZM9.295 4.9465L6.3245 8.8465C6.26395 8.92516 6.18618 8.9889 6.09717 9.03284C6.00816 9.07679 5.91027 9.09976 5.811 9.1C5.71227 9.10053 5.61472 9.07856 5.52574 9.03576C5.43677 8.99297 5.35871 8.93046 5.2975 8.853L3.7115 6.8315C3.65901 6.76406 3.62031 6.68695 3.59761 6.60456C3.57492 6.52217 3.56867 6.43612 3.57924 6.35131C3.5898 6.26651 3.61696 6.18462 3.65917 6.11031C3.70138 6.03601 3.75782 5.97074 3.82525 5.91825C3.96144 5.81223 4.13417 5.76465 4.30544 5.78598C4.39024 5.79655 4.47213 5.82371 4.54644 5.86592C4.62074 5.90813 4.68601 5.96456 4.7385 6.032L5.798 7.384L8.255 4.134C8.30707 4.06571 8.37208 4.00835 8.44632 3.96518C8.52056 3.92202 8.60257 3.8939 8.68767 3.88244C8.77278 3.87097 8.85931 3.87637 8.94232 3.89835C9.02534 3.92032 9.10321 3.95843 9.1715 4.0105C9.23979 4.06257 9.29715 4.12758 9.34031 4.20182C9.38348 4.27605 9.4116 4.35807 9.42306 4.44317C9.43453 4.52828 9.42912 4.61481 9.40715 4.69782C9.38518 4.78084 9.34707 4.85871 9.295 4.927V4.9465Z" fill="#5337C8"/>
</svg>
